<svg version="1.2" xmlns="http://www.w3.org/2000/svg" viewBox="0 0 650 353" width="650" height="353">
	<style>
		.s0 { fill: #ddb468 } 
		.s1 { fill: #840b6f } 
	</style>
	<g id="Layer 1">
		<g id="&lt;Group&gt;">
			<path id="&lt;Path&gt;" class="s0" d="m142.21 353.1q0 0-0.01 0c-16.25 0.06-32.49-3.36-47.08-10.28-24.5-11.62-50.63-34.83-63.24-48.64 12.76-3.29 9.47-14.64 9.47-14.64 0 0 9.93 1.37 16.02-10.66 12.81 19.21 36.26 37.44 60.64 47.48 8.02 3.3 16.1 5.07 24.16 5.18q0.02 0 0.03 0 0.02 0 0.03 0 0.02 0 0.03 0 0.02 0 0.03 0c8.07-0.11 16.14-1.88 24.16-5.18 24.39-10.04 47.84-28.27 60.65-47.48 6.08 12.03 16.01 10.66 16.01 10.66 0 0-3.29 11.35 9.48 14.64-12.61 13.81-38.74 37.02-63.24 48.64-14.59 6.92-30.84 10.34-47.08 10.28q0 0-0.01 0 0 0 0 0"/>
			<g id="&lt;Group&gt;">
				<path id="&lt;Compound Path&gt;" fill-rule="evenodd" class="s1" d="m79.38 317.38q-0.9 1.19-2.37 1.19-0.19 0-0.39-0.02-1.66-0.17-3.71-1.73l-5.11-3.91 7.45-9.74 4.8 3.67q1.19 0.91 1.89 1.9 0.71 1.01 0.83 1.96 0.12 0.99-0.45 1.73-0.64 0.84-1.78 1-0.71 0.1-1.49-0.07 1.7 2.22 0.33 4.02zm-2.45-10.95l-2.16 2.83 1.68 1.28q0.98 0.75 1.8 0.75 0.83 0 1.4-0.77 0.47-0.6 0.23-1.28-0.26-0.74-1.23-1.49zm0.14 7.23q-0.35-0.94-1.65-1.93l-1.6-1.23-2.42 3.17 2.6 1.99q0.78 0.6 1.49 0.52 0.7-0.08 1.31-0.88 0.59-0.76 0.27-1.64z"/>
				<path id="&lt;Path&gt;" class="s1" d="m86.57 311.69l-7.16 9.97 2.69 1.93 7.16-9.96z"/>
				<path id="&lt;Compound Path&gt;" fill-rule="evenodd" class="s1" d="m95.01 326.1q0.11 0.42 0.13 0.89 0.03 0.73-0.16 1.75-0.25 1.2-0.33 1.87c-0.06 0.46 0.01 0.55 0.01 0.56l0.25 0.14-0.44 0.65-2.59-1.71-0.02-0.12q-0.08-0.48 0-1.09 0.07-0.59 0.28-1.42 0.26-1.12 0.3-1.81 0.03-0.6-0.24-1.02l-1.95-1.29-2.61 3.96-2.76-1.81 6.75-10.25 4.55 3q2.2 1.45 2.97 2.94 0.8 1.56-0.32 3.28-1.37 2.08-3.82 1.48zm-1.49-7.57l-2.41 3.66 1.81 1.19q0.96 0.62 1.73 0.58 0.72-0.06 1.43-1.15 0.7-1.06 0.47-1.73-0.26-0.72-1.22-1.36z"/>
				<path id="&lt;Path&gt;" class="s1" d="m105.28 323.63l-3-1.42-5.23 11.09 9.36 4.42 0.67-1.43-6.36-3z"/>
				<path id="&lt;Compound Path&gt;" fill-rule="evenodd" class="s1" d="m119.73 328.97l2.09 13.58-3.28-0.97-0.46-3.23-5.25-1.55-2.19 2.44-2.43-0.72 9.49-10.16zm-2.56 2.95l-3.19 3.59 3.85 1.13z"/>
				<path id="&lt;Path&gt;" class="s1" d="m130.93 343.95l11.09 0.71 0.1-1.57-7.78-0.5 0.26-4.18 6.89 0.44 0.1-1.57-6.88-0.44 0.21-3.35 7.78 0.5 0.11-1.57-11.1-0.71z"/>
				<path id="&lt;Path&gt;" class="s1" d="m153.78 336.76q-1.12-0.32-3.02-0.58-1.29-0.17-1.99-0.4c-0.52-0.17-0.74-0.33-0.83-0.43q-0.19-0.22-0.22-0.51-0.05-0.56 0.43-0.98 0.53-0.45 1.72-0.56 1.39-0.13 2.22 0.27 0.79 0.38 1.09 1.46l0.06 0.21 2.68-0.24-0.05-0.29q-0.29-1.59-1.83-2.43-1.5-0.8-4.21-0.56-2.76 0.25-4.1 1.17-1.41 0.98-1.26 2.65 0.16 1.71 1.85 2.44 1.59 0.68 3.81 0.93 1.35 0.13 2.07 0.39 0.66 0.24 0.9 0.56 0.23 0.31 0.28 0.79 0.08 0.88-0.46 1.37-0.57 0.52-1.93 0.65-1.66 0.15-2.56-0.4-0.86-0.54-1.06-1.95l-0.04-0.25-2.73 0.25 0.04 0.28q0.27 2 2.06 2.95 1.37 0.74 3.36 0.74 0.53 0 1.11-0.06 1.69-0.15 2.95-0.68 1.29-0.55 1.95-1.43 0.68-0.92 0.58-2.09-0.13-1.38-0.92-2.17-0.77-0.76-1.95-1.1z"/>
				<path id="&lt;Path&gt;" class="s1" d="m169.1 328.06l-12.13 3.08-0.26 0.06 0.39 1.53 4.59-1.17 2.64 10.36 3.19-0.81-2.63-10.36 4.59-1.17z"/>
				<path id="&lt;Compound Path&gt;" fill-rule="evenodd" class="s1" d="m175.32 325.4l10.03 9.15-3.16 1.3-2.39-2.22-5.06 2.09-0.17 3.28-2.35 0.96 1.02-13.86 1.95-0.81zm-0.26 3.78l-0.23 4.79 3.71-1.53z"/>
				<path id="&lt;Path&gt;" class="s1" d="m191.01 318.75l-0.8-1.36-11.01 6.5 0.8 1.35 4.08-2.4 5.44 9.2 2.84-1.68-5.43-9.2z"/>
				<path id="&lt;Path&gt;" class="s1" d="m199.99 323.31l-2.45-3.4 5.6-4.03-0.92-1.28-5.6 4.03-1.95-2.72 6.33-4.56-0.92-1.27-9.03 6.48 7.16 9.97 9.03-6.49-0.92-1.28z"/>
				<path id="&lt;Path&gt;" class="s1" d="m215.9 308.85q-0.85-1.09-1.94-1.33-1.06-0.22-2.24 0.13-1.1 0.33-2.86 1.15-1.18 0.56-1.88 0.74-0.63 0.17-0.94 0.08-0.27-0.07-0.45-0.31-0.35-0.44-0.17-1.05 0.19-0.67 1.14-1.41 1.11-0.86 2.01-0.97 0.87-0.1 1.71 0.64l0.17 0.15 2.12-1.66-0.2-0.21q-1.1-1.19-2.85-1.06-1.7 0.14-3.85 1.81-2.19 1.71-2.81 3.21-0.66 1.57 0.37 2.9 1.06 1.35 2.88 1.05 1.69-0.28 3.71-1.28 1.21-0.62 1.95-0.79 0.68-0.15 1.05-0.01 0.37 0.13 0.67 0.51 0.54 0.7 0.36 1.4-0.21 0.76-1.28 1.59-1.31 1.03-2.4 1.05-1-0.01-1.91-1.06l-0.17-0.19-2.16 1.68 0.18 0.22q1.18 1.38 2.95 1.38 0.19 0 0.38-0.01 1.96-0.16 4.13-1.85 1.34-1.05 2.11-2.18 0.78-1.14 0.87-2.25 0.07-1.14-0.65-2.07z"/>
			</g>
			<path id="&lt;Path&gt;" class="s0" d="m40.24 89.4c0.25 5.05-3.65 9.29-8.68 9.52-5.01 0.22-9.28-3.66-9.52-8.67-0.21-5.04 3.67-9.3 8.7-9.52 5.03-0.23 9.28 3.66 9.5 8.67z"/>
			<path id="&lt;Path&gt;" class="s1" d="m232.09 191.25c0 84.53-89.69 113.97-89.69 113.97 0 0-89.68-29.44-89.68-113.97v-64.79c0 0 26.04-15.64 89.68-28.67 63.65 13.03 89.69 28.67 89.69 28.67z"/>
			<path id="&lt;Path&gt;" class="s0" d="m156.62 187.12q-0.01 0-0.05 0.01 0-0.01-0.06-0.01 0 0-0.04-0.01v-0.02c-0.08-0.06-0.16-0.12-0.16-0.22 0-0.08 0.08-0.15 0.16-0.2v-0.02q0 0 0.03-0.01c0 0 0.06-0.04 0.07-0.04q0.04 0.02 0.04 0.03c17.37-3 30.63-18.87 30.63-38.01 0-21.27-16.38-38.51-36.6-38.51-19.47 0-35.22 14.21-36.5 36.16-0.01 0.31-0.04 1.59-0.04 1.59 0 0.1 0 0.32 0 0.57 0 0.45 0 1.01 0 1.23v2.84 63.91c0.34 7.82-3.91 14.66-6.51 16.03v-6.01-10.77-19.35-45.43q0.04-1.6 0.05-2.89c0-0.23 0-0.51 0-0.75 0-0.26 0-0.49 0-0.57 0 0 0.05-1.28 0.08-1.6 0.46-8.57 3.19-16.3 7.47-22.13-30.19 6.7-29.7 34.21-29.7 34.21v0.83 38.33 30.12 17.93 5.72c1.9-0.07 3.7-0.54 5.51-0.81 9.23-1.48 17.09-7.14 20.52-10.34 9.27-8.73 8.63-21.45 8.63-21.45v-1.47-1.26h0.02v-63.61l-0.03-0.09h0.01c0 0-0.79-20.93 13.84-29.13 2.31-1.29 4.98-2.25 8.09-2.79 0.43-0.08 4.76-0.64 8.83 1.04 2.5 1.01 4.78 2.49 6.39 4.05 5.83 5.68 9.48 15.58 9.48 26.62 0 17.94-9.91 32.6-22.33 33.38h-10.9-6.41c0.06 3.35 2.86 6.08 6.41 6.39h8.49c14.27 0.13 26.35 7.5 30.78 17.72l0.04-0.02c2.19 4.87 3.45 10.25 3.45 15.93 0 17.87-12.13 32.9-28.58 37.29q-0.89 0.24-1.81 0.43l-11.28-11.92-0.02 0.03c-2.99-3.19-7.17-5.17-11.77-5.17-8.89 0-16.14 7.37-16.53 16.62 0 0 3.42 0.96 5.18-0.38 0.95-0.71 1.22-1.93 1.62-2.98 1.55-4.03 5.32-6.89 9.73-6.89 2.91 0 5.52 1.23 7.41 3.23l0.01-0.01 9.05 9.55 8.98 9.47v-0.02l0.48 0.53c2.64-0.02 4.81 0 6.4-0.1q0.21-0.01 0.45 0c24.19-0.25 43.7-19.59 43.7-43.43 0-23.48-18.98-42.62-42.71-43.37z"/>
			<g id="&lt;Group&gt;">
				<g id="&lt;Group&gt;">
					<path id="&lt;Path&gt;" class="s0" d="m126.13 34.38c-2.2-7.66-8.23-11.01-11.52-12.3-1.32-0.53-5.11-1.72-7.84-1.57-5.17 0.25-8.48 3.25-10.31 5.97-0.43 0.61-0.77 1.31-1.07 2v0.03q-0.05 0.14-0.09 0.26-0.28 0.63-0.44 1.35-0.01 0.09-0.03 0.15-0.06 0.36-0.14 0.7 0.04-0.04 0.04-0.06c-0.53 4.27 2.27 8.33 6.57 9.27 4.55 1 9.05-1.89 10.07-6.43 0.71-3.31-0.61-6.57-3.11-8.49 6.18 1.26 10.84 6.94 10.84 13.74-0.02 5.8-3.39 10.77-8.2 12.91-10.84 6.18-23.46-3.86-23.46-3.86-28.71-19.05-41.97 2.56-41.97 2.56-7.37 12.12-3.11 21.78 0.41 27.16 2.02 3.08 3.88 4.23 3.88 4.23 1.12 0.8 2.47 1.25 3.94 1.25 3.76 0 6.84-3.04 6.84-6.81 0-3.75-3.08-6.81-6.82-6.82-2.13 0.01-4.01 0.96-5.25 2.47-0.96-2.8-0.43-7.33 0.42-9.58 2.02-5.37 6.18-7.59 10.43-8.52 8.56-1.85 12.42 3.2 12.42 3.2-12.11 3.72-6.78 15.26-6.78 15.26 1.79-8.52 17.68-4.88 20.97-3.73 22.91 8.01 47.33-9.32 40.2-34.34z"/>
					<path id="&lt;Path&gt;" class="s0" d="m126.13 34.38c-2.2-7.66-8.23-11.01-11.52-12.3-1.32-0.53-5.11-1.72-7.84-1.57-5.17 0.25-8.48 3.25-10.31 5.97-0.43 0.61-0.77 1.31-1.07 2v0.03q-0.05 0.14-0.09 0.26-0.28 0.63-0.44 1.35-0.01 0.09-0.03 0.15-0.06 0.36-0.14 0.7 0.04-0.04 0.04-0.06c-0.53 4.27 2.27 8.33 6.57 9.27 4.55 1 9.05-1.89 10.07-6.43 0.71-3.31-0.61-6.57-3.11-8.49 3.88 0.8 7.16 3.33 9.05 6.8q0.24 0.41 0.44 0.83 0.07 0.14 0.12 0.28c7.34 16.09-8.09 34.17-30.46 26.34-3.28-1.15-10.39-3.77-15.67-2.32-12.11 3.72-6.78 15.26-6.78 15.26 1.79-8.52 17.68-4.88 20.97-3.73 22.91 8.01 47.33-9.32 40.2-34.34z"/>
				</g>
				<g id="&lt;Group&gt;">
					<path id="&lt;Path&gt;" class="s0" d="m158.47 34.38c2.19-7.66 8.21-11.01 11.49-12.3 1.34-0.53 5.12-1.72 7.86-1.57 5.16 0.25 8.47 3.25 10.32 5.97 0.42 0.61 0.76 1.31 1.06 2v0.03q0.04 0.14 0.1 0.26 0.25 0.63 0.42 1.35 0.02 0.09 0.03 0.15 0.08 0.36 0.13 0.7 0-0.04-0.02-0.06c0.52 4.27-2.28 8.33-6.57 9.27-4.56 1-9.05-1.89-10.06-6.43-0.73-3.31 0.59-6.57 3.09-8.49-6.16 1.26-10.83 6.94-10.82 13.74 0 5.8 3.37 10.77 8.18 12.91 10.88 6.18 23.47-3.86 23.47-3.86 28.7-19.05 41.95 2.56 41.95 2.56 7.39 12.12 3.13 21.78-0.38 27.16-2.03 3.08-3.91 4.23-3.91 4.23-1.1 0.8-2.45 1.25-3.91 1.25-3.76 0-6.83-3.04-6.83-6.81 0-3.75 3.04-6.81 6.83-6.82 2.09 0.01 3.99 0.96 5.23 2.47 0.96-2.8 0.44-7.33-0.42-9.58-2.03-5.37-6.19-7.59-10.45-8.52-8.55-1.85-12.4 3.2-12.4 3.2 12.11 3.72 6.78 15.26 6.78 15.26-1.8-8.52-17.7-4.88-20.99-3.73-22.88 8.01-47.32-9.32-40.18-34.34z"/>
					<path id="&lt;Path&gt;" class="s0" d="m158.47 34.38c2.19-7.66 8.21-11.01 11.49-12.3 1.34-0.53 5.12-1.72 7.86-1.57 5.16 0.25 8.47 3.25 10.32 5.97 0.42 0.61 0.76 1.31 1.06 2v0.03q0.04 0.14 0.1 0.26 0.25 0.63 0.42 1.35 0.02 0.09 0.03 0.15 0.08 0.36 0.13 0.7 0-0.04-0.02-0.06c0.52 4.27-2.28 8.33-6.57 9.27-4.56 1-9.05-1.89-10.06-6.43-0.73-3.31 0.59-6.57 3.09-8.49-3.88 0.8-7.15 3.33-9.05 6.8q-0.22 0.41-0.43 0.83-0.06 0.14-0.11 0.28c-7.36 16.09 8.07 34.17 30.46 26.34 3.26-1.15 10.39-3.77 15.67-2.32 12.11 3.72 6.78 15.26 6.78 15.26-1.8-8.52-17.7-4.88-20.99-3.73-22.88 8.01-47.32-9.32-40.18-34.34z"/>
				</g>
			</g>
			<path id="&lt;Path&gt;" class="s0" d="m243.66 89.4c-0.23 5.05 3.63 9.29 8.68 9.52 5.01 0.22 9.27-3.66 9.51-8.67 0.24-5.04-3.66-9.3-8.69-9.52-5.01-0.23-9.27 3.66-9.5 8.67z"/>
			<path id="&lt;Path&gt;" class="s0" d="m253.16 80.73c1.03 0.05 2.03 0.29 2.94 0.64 0.1 0.64 0.17 1.33 0.14 2.01-0.24 5-4.48 8.9-9.51 8.68q-1.57-0.11-2.95-0.64-0.16-0.98-0.12-2.02c0.23-5.01 4.49-8.9 9.5-8.67z"/>
			<path id="&lt;Path&gt;" class="s0" d="m30.74 80.73c-1.04 0.05-2.03 0.29-2.93 0.64-0.13 0.64-0.17 1.33-0.16 2.01 0.25 5 4.48 8.9 9.52 8.68q1.57-0.11 2.95-0.64 0.17-0.98 0.12-2.02c-0.22-5.01-4.47-8.9-9.5-8.67z"/>
			<path id="&lt;Path&gt;" class="s0" d="m143.64 69.18l-1.24-0.26-1.22 0.26c-63.94 13.09-90.54 28.76-91.62 29.43l-2.98 1.8v15.3l2.98-1.8c1.08-0.66 27.68-16.33 91.62-29.42l1.22-0.27 1.24 0.27c63.95 13.09 90.52 28.76 91.62 29.42l2.98 1.8v-15.3l-2.98-1.8c-1.1-0.67-27.67-16.34-91.62-29.43z"/>
			<path id="&lt;Compound Path&gt;" class="s0" d="m155.01 4.22c-0.25-0.22-0.56-0.32-0.9-0.25-2.13 0.32-4.09 1.43-5.44 3.16v-0.15-0.02-0.17l-0.01-0.16q-0.01-0.17-0.03-0.34l-0.04-0.15v-0.02l-0.03-0.14-0.03-0.16v-0.01l-0.03-0.15-0.01-0.15v-0.02-0.01l-0.05-0.14v-0.01l-0.04-0.15-0.05-0.15v-0.01l-0.05-0.13v-0.03l-0.06-0.14v-0.01l-0.06-0.13v-0.01l-0.05-0.13v-0.02l-0.06-0.13-0.08-0.15-0.08-0.14v-0.01l-0.07-0.12-0.07-0.14v-0.02l-0.07-0.12v-0.02l-0.1-0.11v-0.01l-0.09-0.12-0.08-0.13v-0.01l-0.03-0.02-0.06-0.09-0.1-0.13-0.01-0.01-0.09-0.11-0.08-0.11-0.02-0.01-0.01-0.02-0.08-0.1-0.11-0.11-0.11-0.11-0.11-0.09v-0.02l-0.1-0.1v-0.01l-0.12-0.1h-0.01l-0.11-0.1v-0.01l-0.12-0.08-0.13-0.1-0.11-0.08h-0.03q-0.1-0.1-0.23-0.18l-0.14-0.08v-0.01l-0.12-0.07-0.13-0.08h-0.01l-0.13-0.06-0.12-0.07-0.16-0.06-0.14-0.07-0.13-0.05-0.14-0.06h-0.02l-0.14-0.05-0.16-0.06-0.15-0.03-0.14-0.04-0.14-0.04-0.16-0.02q-0.08-0.03-0.17-0.03v-0.01l-0.14-0.03-0.15-0.02-0.17-0.01-0.16-0.01h-0.17l-0.17-0.01-0.14 0.01h-0.01c-0.03 0-0.11 0-0.16 0l-0.16 0.01h-0.01l-0.12 0.01-0.18 0.02-0.15 0.03v0.01l-0.15 0.03-0.16 0.02q-0.07 0.03-0.16 0.04l-0.14 0.04-0.15 0.03h-0.02l-0.14 0.06-0.14 0.05-0.14 0.06-0.15 0.05-0.14 0.07-0.14 0.06-0.12 0.07-0.14 0.06-0.14 0.08-0.13 0.07v0.01l-0.14 0.08q-0.12 0.08-0.25 0.18l-0.12 0.08h-0.02l-0.09 0.1-0.14 0.08v0.01l-0.12 0.1-0.1 0.1-0.01 0.01-0.09 0.1v0.02l-0.13 0.09-0.09 0.11h-0.02l-0.09 0.11-0.08 0.1-0.05 0.02v0.01l-0.09 0.11-0.11 0.11v0.01l-0.07 0.13-0.08 0.09-0.02 0.02v0.01l-0.07 0.13h-0.02l-0.08 0.12v0.01l-0.08 0.11v0.02l-0.07 0.12-0.02 0.02-0.08 0.14-0.08 0.12v0.01l-0.06 0.14-0.06 0.15-0.07 0.13v0.02l-0.05 0.13-0.02 0.01-0.03 0.13v0.01l-0.06 0.14v0.03l-0.07 0.13v0.01l-0.04 0.15-0.03 0.15v0.01l-0.05 0.14v0.01 0.02l-0.05 0.15-0.03 0.15v0.01l-0.01 0.16-0.03 0.14v0.02l-0.03 0.15q-0.02 0.17-0.03 0.34v0.16 0.17 0.02l-0.02 0.15c-1.37-1.73-3.29-2.84-5.45-3.16-0.33-0.07-0.64 0.03-0.88 0.25q-0.41 0.34-0.41 0.84v0.31c0 0.54 0.42 1.01 0.95 1.1 2.87 0.46 5.06 2.92 5.06 5.92q0 0.12 0 0.25h-0.95c-0.62 0-1.13 0.49-1.13 1.12 0 0.61 0.51 1.1 1.13 1.1h7.92 7.95c0.64 0 1.13-0.49 1.13-1.1 0-0.63-0.49-1.12-1.13-1.12h-0.96q0-0.13 0-0.25c0-3 2.2-5.46 5.06-5.92 0.54-0.09 0.93-0.56 0.93-1.1v-0.31q0-0.5-0.37-0.84z"/>
			<path id="&lt;Path&gt;" class="s0" d="m155.38 21.22c0-1.2-0.84-2.17-1.97-2.38l-0.01-0.02c-0.13-0.03-0.29-0.05-0.41-0.05h-10.59-10.57q-0.21 0-0.42 0.05v0.02c-1.14 0.21-1.99 1.18-1.99 2.38 0 0.53 0.19 1.05 0.5 1.43l-0.02 0.05c2.46 2.6 7.53 7.46 11.58 21.62h0.04c0.14 0.33 0.49 0.59 0.88 0.59 0.42 0 0.75-0.26 0.9-0.59h0.02c4.05-14.16 9.14-19.02 11.58-21.62l-0.02-0.05c0.3-0.38 0.5-0.9 0.5-1.43z"/>
			<path id="&lt;Compound Path&gt;" fill-rule="evenodd" class="s0" d="m238.24 122.89v68.26c0 36.51-16.3 68.84-47.15 93.51-23.02 18.4-45.8 26-46.76 26.32l-1.93 0.63-1.92-0.63c-0.95-0.32-23.74-7.92-46.77-26.32-30.83-24.67-47.13-57-47.13-93.51v-68.26l2.98-1.8c1.08-0.65 27.68-16.34 91.62-29.43l1.22-0.27 1.24 0.27c63.95 13.09 90.52 28.78 91.62 29.43zm-6.15 3.48c0 0-26.04-15.65-89.69-28.68-63.64 13.03-89.68 28.68-89.68 28.68v64.78c0 84.53 89.68 113.97 89.68 113.97 0 0 89.69-29.44 89.69-113.97z"/>
			<path id="&lt;Path&gt;" class="s0" d="m246.65 215.87c1.19-3.03 3.15-5.67 5.54-8.79 0.98-1.3 5.49-6.18 6.49-7.54 1.33-1.78 2.4-3.87 2.51-6.38-0.74 1.56-2.16 2.79-3.97 3.22-3.12 0.71-6.23-1.24-6.94-4.36-0.71-3.12 1.24-6.22 4.35-6.95q0.75-0.16 1.47-0.12 0.04-0.01 0.03-0.01 0 0.01 0-0.02c7.25-0.24 11.44 6.72 11.86 10.97 0.61 6.05-1.1 9.9-3.04 13.75-0.16 0.35-0.26 0.72-0.42 1.12-1.79 5.17 1.24 9.02 5.15 9.77 1.73 0.34 3.68-0.14 5.39-1.1-0.05 2.23-1.74 3.88-1.76 3.91-5.15 4.72-11.62 0.63-11.62 0.63q-0.68-0.34-1.2-0.84-0.1 1.37-0.04 2.87c0.26 9.56 8.75 15.38 16.34 10.8 4.14-2.52 5.07-6.61 5.78-10.42q0 0.01 0.05 0.22 0.03 0.02 0.03 0.04 0.02 0.05 0.03 0.05c0.32 0.86 1.17 3.25 1.33 4.32 0.24 2.04 0.28 4.38-0.28 6.56-0.57 2.37-2.4 5.13-4.59 7.31q-0.56 0.53-1.12 1.01c-1.66 1.48-4.56 2.66-6.77 3.15-6.64 1.44-11.8-0.45-15.72-2.41-8.22-4.05-14.32-16.88-8.88-30.76z"/>
			<path id="&lt;Path&gt;" class="s0" d="m253.49 216.67c0.97-2.42 2.5-4.5 4.38-6.97 0.4-0.51 1.44-1.69 2.5-2.89 0.62-0.7 2.22-2.8 2.87-3.87 0.09-0.15 0.37-0.69 0.45-0.86 0.34-0.69 0.67-1.38 0.89-1.94 0.04-0.12 0.21-0.62 0.24-0.84 0.08-0.29 0.14-0.61 0.14-0.76 0.1-0.55 0.16-1.05 0.19-1.4 0-0.08 0-0.4 0-0.49 0-2.74-0.73-7.67-5.52-10.37 0.94 0.79 1.64 1.87 1.95 3.15 0.7 3.12-1.24 6.24-4.36 6.95-3.12 0.71-6.23-1.24-6.94-4.36-0.71-3.12 1.24-6.22 4.35-6.95 0.51-0.11 1.5-0.13 1.5-0.13l0.03-0.02q0.4 0 0.79 0c6.74 0.28 10.64 6.89 11.04 10.97 0.61 6.05-1.1 9.9-3.04 13.75-0.16 0.35-0.26 0.72-0.42 1.12-1.79 5.17 1.24 9.02 5.15 9.77 1.73 0.34 3.68-0.14 5.39-1.1-0.05 2.23-1.74 3.88-1.76 3.91-5.15 4.72-11.62 0.63-11.62 0.63q-0.68-0.34-1.2-0.84-0.1 1.37-0.04 2.87c0.26 9.56 8.75 15.38 16.34 10.8 4.14-2.52 5.07-6.61 5.78-10.42 0 0 0.43 1.18 0.85 2.41q-0.31-0.2-0.31-0.13c0.2 1.63 0.22 3.46-0.22 5.21-0.46 1.88-1.91 4.06-3.66 5.78-0.26 0.29-0.58 0.54-0.87 0.8-1.34 1.18-3.63 2.12-5.37 2.49-5.25 1.15-9.48-0.11-12.61-1.66-6.48-3.2-11.2-13.62-6.89-24.61z"/>
			<path id="&lt;Path&gt;" class="s0" d="m239.11 245.38c-0.96 1.24-1.63 2.77-1.83 4.46-0.59 4.82 2.66 9.19 7.23 9.75q1.12 0.14 2.19-0.01c1.09-0.19 2.22-0.44 3.51-0.94q0.72-0.29 1.49-0.66c0.98-0.49 8.78-4.33 14.44-1.93 1.38 0.61 2.6 1.14 3.82 2.06q-0.57-0.15-1.15-0.22c-4.55-0.57-8.7 2.67-9.26 7.22-0.21 1.64 0.1 3.24 0.77 4.62 0.06 0.23 0.23 0.5 0.45 0.82 0 0.02 0.04 0.07 0.06 0.09q0.17 0.25 0.37 0.53 0.03 0.04 0.05 0.06c1.35 1.87 3.72 4.78 4.33 7.46 0.18 0.83 0.26 1.74 0.18 2.67-0.35 4.86-4.39 8.58-9.03 8.3q-1.65-0.11-3.07-0.83c-0.16-0.07-0.86-0.52-1.08-0.72q-0.03-0.02-0.05-0.06c-0.21-0.17-0.77-0.83-0.93-1.06-0.63-0.92-0.96-2.03-0.86-3.21 0.15-2.47 2.05-4.41 4.41-4.72-0.68-0.8-1.51-1.49-2.46-1.98q-0.6-0.36-1.33-0.71c-1.38-0.64-7.3-2.28-8.54-2.81-0.96-0.42-1.94-0.88-2.56-1.24-4.24-2.5-12.29-8.82-8.8-19.56 0 0 2.25-6.73 7.65-7.38z"/>
			<path id="&lt;Path&gt;" class="s0" d="m262.8 258.72c-1.94 2.15-1.79 5.48 0.37 7.44 2.16 1.95 5.47 1.8 7.44-0.37 1.94-2.15 1.78-5.48-0.38-7.43-2.14-1.95-5.47-1.8-7.43 0.36z"/>
			<path id="&lt;Path&gt;" class="s0" d="m256.79 271.8c-1.7-0.74-9.7-3.34-13.59-5.61-6.84-3.96-13.76-10.9-4.09-20.81-0.96 1.24-1.63 2.77-1.83 4.46-0.59 4.82 2.66 9.19 7.23 9.75q1.12 0.14 2.19-0.01c1.09-0.19 2.22-0.44 3.51-0.94q0.72-0.29 1.49-0.66c0.98-0.49 8.78-4.33 14.44-1.93 1.38 0.61 2.6 1.14 3.82 2.06q-0.57-0.15-1.15-0.22c-4.55-0.57-8.7 2.67-9.26 7.22-0.21 1.64 0.1 3.24 0.77 4.62 0.06 0.23 0.23 0.5 0.45 0.82 0 0.02 0.04 0.07 0.06 0.09q0.17 0.25 0.37 0.53 0.03 0.04 0.05 0.06c1.35 1.87 3.72 4.78 4.33 7.46 0.18 0.83 0.26 1.74 0.18 2.67-0.12 1.9-0.82 3.61-1.9 4.99 1.77-2.45 5.02-9.21-7.07-14.55z"/>
			<path id="&lt;Path&gt;" class="s0" d="m37.99 215.87c-1.19-3.03-3.15-5.67-5.54-8.79-0.98-1.3-5.5-6.18-6.49-7.54-1.34-1.78-2.41-3.87-2.52-6.38 0.75 1.56 2.16 2.79 3.98 3.22 3.12 0.71 6.22-1.24 6.94-4.36 0.71-3.12-1.25-6.22-4.35-6.95q-0.75-0.16-1.47-0.12-0.04-0.01-0.03-0.01 0 0.01 0-0.02c-7.25-0.24-11.44 6.72-11.86 10.97-0.61 6.05 1.1 9.9 3.04 13.75 0.15 0.35 0.26 0.72 0.42 1.12 1.78 5.17-1.25 9.02-5.16 9.77-1.72 0.34-3.68-0.14-5.38-1.1 0.04 2.23 1.74 3.88 1.75 3.91 5.16 4.72 11.63 0.63 11.63 0.63q0.68-0.34 1.19-0.84 0.11 1.37 0.05 2.87c-0.27 9.56-8.76 15.38-16.35 10.8-4.13-2.52-5.06-6.61-5.77-10.42q0 0.01-0.05 0.22-0.04 0.02-0.03 0.04-0.03 0.05-0.03 0.05c-0.32 0.86-1.18 3.25-1.34 4.32-0.23 2.04-0.27 4.38 0.29 6.56 0.57 2.37 2.4 5.13 4.59 7.31q0.55 0.53 1.12 1.01c1.66 1.48 4.56 2.66 6.76 3.15 6.65 1.44 11.81-0.45 15.73-2.41 8.21-4.05 14.31-16.88 8.88-30.76z"/>
			<path id="&lt;Path&gt;" class="s0" d="m31.14 216.67c-0.96-2.42-2.5-4.5-4.37-6.97-0.41-0.51-1.45-1.69-2.5-2.89-0.62-0.7-2.22-2.8-2.87-3.87-0.09-0.15-0.38-0.69-0.46-0.86-0.34-0.69-0.66-1.38-0.88-1.94-0.05-0.12-0.22-0.62-0.25-0.84-0.07-0.29-0.14-0.61-0.14-0.76-0.09-0.55-0.15-1.05-0.18-1.4 0-0.08 0-0.4 0-0.49 0-2.74 0.72-7.67 5.52-10.37-0.95 0.79-1.64 1.87-1.95 3.15-0.7 3.12 1.24 6.24 4.36 6.95 3.12 0.71 6.22-1.24 6.94-4.36 0.71-3.12-1.25-6.22-4.35-6.95-0.51-0.11-1.5-0.13-1.5-0.13l-0.04-0.02q-0.39 0-0.79 0c-6.74 0.28-10.63 6.89-11.03 10.97-0.61 6.05 1.1 9.9 3.04 13.75 0.15 0.35 0.26 0.72 0.42 1.12 1.78 5.17-1.25 9.02-5.16 9.77-1.72 0.34-3.68-0.14-5.38-1.1 0.04 2.23 1.74 3.88 1.75 3.91 5.16 4.72 11.63 0.63 11.63 0.63q0.68-0.34 1.19-0.84 0.11 1.37 0.05 2.87c-0.27 9.56-8.76 15.38-16.35 10.8-4.13-2.52-5.06-6.61-5.77-10.42 0 0-0.43 1.18-0.86 2.41q0.32-0.2 0.32-0.13c-0.21 1.63-0.22 3.46 0.21 5.21 0.47 1.88 1.91 4.06 3.66 5.78 0.27 0.29 0.58 0.54 0.87 0.8 1.34 1.18 3.64 2.12 5.38 2.49 5.24 1.15 9.48-0.11 12.6-1.66 6.49-3.2 11.21-13.62 6.89-24.61z"/>
			<path id="&lt;Path&gt;" class="s0" d="m45.53 245.38c0.95 1.24 1.62 2.77 1.83 4.46 0.58 4.82-2.66 9.19-7.24 9.75q-1.12 0.14-2.18-0.01c-1.09-0.19-2.22-0.44-3.51-0.94q-0.73-0.29-1.49-0.66c-0.98-0.49-8.79-4.33-14.44-1.93-1.38 0.61-2.61 1.14-3.82 2.06q0.56-0.15 1.15-0.22c4.55-0.57 8.69 2.67 9.25 7.22 0.21 1.64-0.09 3.24-0.76 4.62-0.06 0.23-0.23 0.5-0.45 0.82 0 0.02-0.05 0.07-0.07 0.09q-0.17 0.25-0.37 0.53-0.02 0.04-0.04 0.06c-1.35 1.87-3.73 4.78-4.33 7.46q-0.3 1.26-0.19 2.67c0.36 4.86 4.4 8.58 9.03 8.3q1.66-0.11 3.08-0.83c0.15-0.07 0.85-0.52 1.07-0.72q0.03-0.02 0.06-0.06c0.21-0.17 0.76-0.83 0.93-1.06 0.62-0.92 0.95-2.03 0.86-3.21-0.16-2.47-2.05-4.41-4.41-4.72 0.68-0.8 1.51-1.49 2.45-1.98q0.61-0.36 1.34-0.71c1.38-0.64 7.29-2.28 8.54-2.81 0.96-0.42 1.93-0.88 2.55-1.24 4.25-2.5 12.3-8.82 8.81-19.56 0 0-2.25-6.73-7.65-7.38z"/>
			<path id="&lt;Path&gt;" class="s0" d="m21.83 258.72c1.95 2.15 1.79 5.48-0.37 7.44-2.15 1.95-5.46 1.8-7.43-0.37-1.94-2.15-1.79-5.48 0.37-7.43 2.14-1.95 5.48-1.8 7.43 0.36z"/>
			<path id="&lt;Path&gt;" class="s0" d="m27.84 271.8c1.71-0.74 9.7-3.34 13.6-5.61 6.83-3.96 13.76-10.9 4.09-20.81 0.95 1.24 1.62 2.77 1.83 4.46 0.58 4.82-2.66 9.19-7.24 9.75q-1.12 0.14-2.18-0.01c-1.09-0.19-2.22-0.44-3.51-0.94q-0.73-0.29-1.49-0.66c-0.98-0.49-8.79-4.33-14.44-1.93-1.38 0.61-2.61 1.14-3.82 2.06q0.56-0.15 1.15-0.22c4.55-0.57 8.69 2.67 9.25 7.22 0.21 1.64-0.09 3.24-0.76 4.62-0.06 0.23-0.23 0.5-0.45 0.82 0 0.02-0.05 0.07-0.07 0.09q-0.17 0.25-0.37 0.53-0.02 0.04-0.04 0.06c-1.35 1.87-3.73 4.78-4.33 7.46q-0.3 1.26-0.19 2.67c0.12 1.9 0.82 3.61 1.91 4.99-1.77-2.45-5.03-9.21 7.06-14.55z"/>
		</g>
		<g id="&lt;Group&gt;">
			<path id="&lt;Path&gt;" class="s0" d="m649.19 249.54c0 0.44-0.09 0.82-4.59 0.75-4.56-0.07-77.41 1.3-97.11 1.64-19.72 0.35-43.19 1.05-46.47 1.05-3.26 0-4.84-1.7-4.87-3.41h-0.02v-0.03-0.04h0.02c0.03-1.69 1.61-3.4 4.87-3.4 3.28 0 26.75 0.69 46.47 1.05 19.7 0.33 92.55 1.72 97.11 1.63 4.5-0.06 4.59 0.31 4.59 0.76z"/>
			<path id="&lt;Path&gt;" class="s0" d="m478.86 249.53l-0.01 0.01 0.01 0.03h-0.01c-0.03 1.71-1.62 3.41-4.87 3.41-3.29 0-26.76-0.7-46.48-1.05-19.7-0.34-92.56-1.71-97.08-1.64-4.53 0.07-4.62-0.31-4.62-0.75 0-0.45 0.09-0.82 4.62-0.76 4.52 0.09 77.38-1.3 97.08-1.63 19.72-0.36 43.19-1.05 46.48-1.05 3.25 0 4.84 1.71 4.87 3.4z"/>
			<path id="&lt;Path&gt;" class="s0" d="m484.61 246.1h6.88v6.88h-6.88z"/>
		</g>
		<g id="&lt;Group&gt;">
			<path id="&lt;Compound Path&gt;" fill-rule="evenodd" class="s0" d="m389.62 111.6c0 6.41-2.68 11.38-7.97 14.8-4.97 3.21-12.13 4.84-21.27 4.84h-34.58v-69.16h32.37c8.13 0 14.73 1.48 19.62 4.38 5.28 3.14 7.95 7.53 7.95 13.05 0 4.67-1.91 8.71-5.67 12.01q-2.11 1.85-4.73 3.18 4.59 1.35 7.75 3.53c4.33 2.99 6.53 7.49 6.53 13.37zm-21.55-38.04c-2.76-1.62-7.18-2.44-13.13-2.44h-14.94v19.83h14.67c5.71 0 10.09-1 13-2.97 2.67-1.81 3.97-4.4 3.97-7.92 0-3-1.14-5.06-3.57-6.5zm-28.07 48.65h21.3c4.6 0 8.18-1.01 10.64-2.99 2.34-1.89 3.48-4.54 3.48-8.08 0-3.67-1.52-6.25-4.78-8.09-3.6-2.04-9.16-3.07-16.53-3.07h-14.11z"/>
			<path id="&lt;Path&gt;" class="s0" d="m408.12 131.24h12.16v-55.45h-12.16z"/>
			<path id="&lt;Compound Path&gt;" fill-rule="evenodd" class="s0" d="m486.76 126.42l1.07 0.67v4.15h-11.24l-0.69-0.76q-1.44-1.62-2.64-4-1.1-2.21-2.38-5.59c-1.28-3.38-2.57-6-3.86-7.79-1.04-1.45-2.24-2.41-3.65-2.92h-12.66v21.06h-12.16v-55.45h23.3c7.39 0 13.25 1.36 17.41 4.03 4.49 2.89 6.76 7.32 6.76 13.16 0 5.13-1.85 11.51-9.96 14.87q0.83 0.82 1.56 1.78c1.48 1.93 2.89 4.55 4.17 7.78 1.07 2.7 2.06 4.87 2.95 6.44 0.99 1.74 1.69 2.35 2.02 2.57zm-24.76-42.54h-11.29v18.28h11.29c10.57 0 11.93-4.9 11.93-9.18 0-4.23-1.36-9.1-11.93-9.1z"/>
			<path id="&lt;Compound Path&gt;" fill-rule="evenodd" class="s0" d="m579.01 75.06l27.14 56.18h-13.27l-6.18-13.22h-26.38l-6.61 13.22h-53.63v-55.45h12.16v47.36h31.96v6.59l28.04-54.68zm3.87 34.87l-8.95-19.14-9.57 19.14z"/>
		</g>
		<g id="&lt;Group&gt;">
			<path id="&lt;Path&gt;" class="s0" d="m345.55 293.35c-1.66-0.66-3.86-1.27-6.56-1.82q-3.18-0.65-4.85-1.32c-1.28-0.51-1.85-0.98-2.1-1.29q-0.49-0.59-0.49-1.49c0-1.04 0.44-1.81 1.4-2.4q1.61-1.01 4.86-1.01 3.36 0 5.2 1.09c1.15 0.68 1.86 1.77 2.18 3.32l0.15 0.72h5.07l-0.14-1.03c-0.33-2.43-1.58-4.36-3.72-5.72-2.05-1.31-4.9-1.97-8.49-1.97-3.51 0-6.4 0.6-8.59 1.79q-3.57 1.94-3.58 5.8 0.01 3.5 3.15 5.42c1.9 1.14 4.72 2.08 8.37 2.79q3.27 0.65 5.05 1.39 1.65 0.68 2.28 1.49 0.58 0.75 0.58 1.92 0.01 1.99-1.61 3.04-1.79 1.18-5.31 1.18-3.99 0-5.95-1.43c-1.25-0.91-1.93-2.33-2.09-4.34l-0.06-0.84h-5.15l0.08 0.98c0.24 2.96 1.57 5.28 3.94 6.89 2.28 1.55 5.41 2.33 9.3 2.33 3.73 0 6.74-0.7 8.96-2.07 2.35-1.47 3.55-3.55 3.55-6.19q0-2.67-1.42-4.46-1.37-1.72-4.01-2.77z"/>
			<path id="&lt;Compound Path&gt;" fill-rule="evenodd" class="s0" d="m370.26 280.43l13.54 28.04h-6.16l-3.14-6.72h-13.75l-3.36 6.72h-4.63l14.38-28.04zm2.54 17.73l-4.95-10.6-5.3 10.6z"/>
			<path id="&lt;Compound Path&gt;" fill-rule="evenodd" class="s0" d="m411.8 306.5l0.43 0.27v1.7h-5.34l-0.27-0.3q-0.71-0.79-1.3-1.97-0.56-1.12-1.2-2.82-1-2.62-2-4.02-0.85-1.19-2.03-1.6h-6.74v10.71h-5.66v-27.67h11.59c3.7 0 6.63 0.68 8.71 2.01 2.2 1.41 3.31 3.59 3.31 6.47 0 2.6-0.97 5.85-5.28 7.47q0.57 0.51 1.07 1.16 1.11 1.45 2.08 3.89 0.83 2.08 1.52 3.3c0.5 0.89 0.88 1.26 1.11 1.4zm-12.45-22.11h-6v9.82h6c5.68 0 6.33-2.81 6.33-4.93 0-2.1-0.65-4.89-6.33-4.89z"/>
			<path id="&lt;Path&gt;" class="s0" d="m428.55 300.47q-0.01 2.49-1.08 3.68c-0.7 0.77-1.73 1.14-3.15 1.14q-2.1 0-3.19-0.94-1.05-0.9-1.11-2.91l-0.03-0.88h-5.35l0.06 0.96q0.21 3.52 2.75 5.46c1.64 1.24 3.93 1.86 6.83 1.86 3.16 0 5.62-0.79 7.32-2.34 1.73-1.58 2.6-3.85 2.6-6.77v-18.93h-5.65z"/>
			<path id="&lt;Compound Path&gt;" fill-rule="evenodd" class="s0" d="m455.55 280.43l13.55 28.04h-6.16l-3.14-6.72h-13.75l-3.36 6.72h-4.64l14.38-28.04zm2.55 17.73l-4.96-10.6-5.3 10.6z"/>
			<path id="&lt;Compound Path&gt;" fill-rule="evenodd" class="s0" d="m495.75 289.65c0 2.97-1.1 5.22-3.28 6.7-2.07 1.4-5.02 2.11-8.79 2.11h-5.04v10.01h-5.65v-27.67h10.69c3.72 0 6.66 0.71 8.75 2.11 2.2 1.48 3.32 3.75 3.32 6.74zm-11.99-5.26h-5.12v10.48h5.12c5.67 0 6.33-2.98 6.33-5.22 0-2.26-0.66-5.26-6.33-5.26z"/>
			<path id="&lt;Path&gt;" class="s0" d="m521.12 297.66q0 3.86-1.74 5.74-1.71 1.85-5.63 1.85-3.98 0-5.67-1.88-1.73-1.92-1.73-5.71v-16.86h-5.66v16.02c0 3.83 1.05 6.82 3.13 8.89 2.08 2.08 5.42 3.13 9.93 3.13 4.52 0 7.86-1.05 9.92-3.13 2.06-2.07 3.11-5.07 3.11-8.89v-16.02h-5.66z"/>
			<path id="&lt;Compound Path&gt;" fill-rule="evenodd" class="s0" d="m557.72 306.5l0.42 0.27v1.7h-5.34l-0.27-0.3q-0.71-0.79-1.3-1.97-0.56-1.12-1.2-2.82-0.99-2.62-2-4.02-0.84-1.19-2.02-1.6h-6.75v10.71h-5.65v-27.67h11.58c3.7 0 6.64 0.68 8.71 2.01 2.2 1.41 3.32 3.59 3.32 6.47 0 2.6-0.97 5.85-5.29 7.47q0.58 0.51 1.07 1.16 1.11 1.45 2.08 3.89 0.83 2.08 1.52 3.3c0.5 0.89 0.89 1.26 1.12 1.4zm-12.46-22.11h-6v9.82h6c5.68 0 6.34-2.81 6.34-4.93 0-2.1-0.66-4.89-6.34-4.89z"/>
			<path id="&lt;Path&gt;" class="s0" d="m372.67 210.7h-35.48v-18.11h31.35v-7.36h-31.35v-14.41h35.48v-7.43h-46.97v54.74h46.97z"/>
			<path id="&lt;Path&gt;" class="s0" d="m409.57 218.86l28.2-55.47h-9.37l-20.49 40.37-19.05-40.37h-12.76l27.1 55.47z"/>
			<path id="&lt;Compound Path&gt;" fill-rule="evenodd" class="s0" d="m476.68 218.13l-6.16-13.21h-26.77l-6.6 13.21h-9.53l28.43-55.47h6.37l26.79 55.47zm-9.68-20.64l-9.44-20.19-10.09 20.19z"/>
			<path id="&lt;Compound Path&gt;" fill-rule="evenodd" class="s0" d="m534.16 218.13l-0.59-0.66q-1.41-1.57-2.58-3.92-1.1-2.2-2.37-5.55c-1.28-3.4-2.59-6.05-3.89-7.86-1.09-1.52-2.36-2.52-3.86-3.05h-13.02v21.04h-11.5v-54.74h22.95c7.31 0 13.1 1.34 17.21 3.98 4.38 2.82 6.6 7.15 6.6 12.87 0 5.11-1.88 11.5-10.21 14.73q1.01 0.95 1.9 2.1c1.46 1.9 2.84 4.49 4.11 7.69 1.07 2.71 2.07 4.88 2.97 6.47 1.02 1.8 1.77 2.45 2.13 2.68l0.92 0.58v3.64zm-14.72-47.31h-11.6v18.91h11.6c10.97 0 12.24-5.42 12.24-9.49 0-4.05-1.27-9.42-12.24-9.42z"/>
			<path id="&lt;Compound Path&gt;" fill-rule="evenodd" class="s0" d="m609.08 218.13h-12.53l-6.17-13.21h-26.76l-6.6 13.21h-9.54l28.44-55.47h6.36zm-22.21-20.63l-9.44-20.2-10.09 20.2z"/>
		</g>
	</g>
</svg>